<svg width="159" height="66" viewBox="0 0 479 198" fill="none" xmlns="http://www.w3.org/2000/svg">
<path d="M4.07397 195.955C2.87894 195.955 1.90119 195.574 1.14071 194.812C0.380237 194.049 0 193.069 0 191.871V84.0604C0 82.8625 0.380237 81.8824 1.14071 81.1201C1.90119 80.3578 2.87894 79.9767 4.07397 79.9767H22.4883C23.5747 79.9767 24.4981 80.3578 25.2586 81.1201C26.1277 81.8824 26.5623 82.8625 26.5623 84.0604V90.1044C29.061 86.7285 32.3745 83.9515 36.5028 81.7735C40.6311 79.4866 45.7371 78.3432 51.8209 78.3432C57.2528 78.3432 62.033 79.2144 66.1613 80.9568C70.2895 82.5903 73.8203 85.0405 76.7536 88.3075C79.6868 91.5745 81.9683 95.5494 83.5978 100.232C85.3361 104.915 86.3138 110.305 86.5311 116.404C86.6397 118.582 86.6941 120.596 86.6941 122.448C86.6941 124.299 86.6397 126.314 86.5311 128.492C86.3138 134.372 85.3904 139.654 83.7608 144.337C82.1312 149.019 79.8498 152.994 76.9165 156.261C73.9833 159.528 70.3982 162.087 66.1613 163.939C62.033 165.681 57.2528 166.552 51.8209 166.552C46.4976 166.552 41.8261 165.627 37.8064 163.775C33.8954 161.815 30.6362 159.093 28.0289 155.608V191.871C28.0289 193.069 27.6487 194.049 26.8882 194.812C26.1277 195.574 25.15 195.955 23.9549 195.955H4.07397ZM43.0211 144.663C46.7148 144.663 49.5938 143.901 51.6579 142.376C53.7221 140.852 55.1887 138.783 56.0578 136.169C57.0356 133.555 57.6331 130.67 57.8504 127.512C58.0676 124.136 58.0676 120.76 57.8504 117.384C57.6331 114.226 57.0356 111.34 56.0578 108.726C55.1887 106.113 53.7221 104.044 51.6579 102.519C49.5938 100.994 46.7148 100.232 43.0211 100.232C39.436 100.232 36.5571 101.049 34.3843 102.682C32.2115 104.207 30.6362 106.222 29.6585 108.726C28.6807 111.231 28.1375 113.953 28.0289 116.894C27.9203 118.963 27.8659 120.978 27.8659 122.938C27.8659 124.898 27.9203 126.967 28.0289 129.145C28.1375 131.868 28.7351 134.427 29.8215 136.822C30.9078 139.109 32.5374 141.015 34.7102 142.54C36.883 143.955 39.6533 144.663 43.0211 144.663ZM101.989 164.919C100.794 164.919 99.8164 164.538 99.056 163.775C98.2955 163.013 97.9152 162.033 97.9152 160.835V84.0604C97.9152 82.9714 98.2955 82.0458 99.056 81.2835C99.8164 80.4123 100.794 79.9767 101.989 79.9767H120.729C121.925 79.9767 122.902 80.4123 123.663 81.2835C124.423 82.0458 124.803 82.9714 124.803 84.0604V90.5944C127.737 87.2185 131.213 84.6049 135.233 82.7536C139.361 80.9023 143.978 79.9767 149.084 79.9767H156.254C157.341 79.9767 158.264 80.3578 159.025 81.1201C159.894 81.8824 160.328 82.8625 160.328 84.0604V100.885C160.328 101.974 159.894 102.955 159.025 103.826C158.264 104.588 157.341 104.969 156.254 104.969H140.447C135.993 104.969 132.517 106.222 130.018 108.726C127.628 111.122 126.433 114.552 126.433 119.017V160.835C126.433 162.033 125.998 163.013 125.129 163.775C124.369 164.538 123.391 164.919 122.196 164.919H101.989ZM206.478 166.552C197.352 166.552 189.639 165.082 183.337 162.142C177.145 159.201 172.365 155.009 168.997 149.564C165.738 144.01 163.891 137.421 163.457 129.798C163.348 127.62 163.294 125.17 163.294 122.448C163.294 119.616 163.348 117.166 163.457 115.097C163.891 107.365 165.847 100.777 169.323 95.3316C172.799 89.8866 177.634 85.6939 183.826 82.7536C190.127 79.8133 197.678 78.3432 206.478 78.3432C215.386 78.3432 222.936 79.8133 229.129 82.7536C235.43 85.6939 240.319 89.8866 243.795 95.3316C247.273 100.777 249.228 107.365 249.663 115.097C249.771 117.166 249.826 119.616 249.826 122.448C249.826 125.17 249.771 127.62 249.663 129.798C249.228 137.421 247.327 144.01 243.958 149.564C240.699 155.009 235.919 159.201 229.618 162.142C223.425 165.082 215.712 166.552 206.478 166.552ZM206.478 146.623C211.366 146.623 214.897 145.153 217.07 142.213C219.351 139.273 220.655 134.862 220.981 128.982C221.09 127.348 221.144 125.17 221.144 122.448C221.144 119.725 221.09 117.547 220.981 115.914C220.655 110.142 219.351 105.786 217.07 102.846C214.897 99.7965 211.366 98.2719 206.478 98.2719C201.698 98.2719 198.167 99.7965 195.885 102.846C193.604 105.786 192.355 110.142 192.137 115.914C192.029 117.547 191.974 119.725 191.974 122.448C191.974 125.17 192.029 127.348 192.137 128.982C192.355 134.862 193.604 139.273 195.885 142.213C198.167 145.153 201.698 146.623 206.478 146.623ZM292.578 166.552C287.363 166.552 282.637 165.735 278.4 164.102C274.272 162.36 270.687 159.855 267.645 156.588C264.712 153.212 262.43 149.183 260.801 144.5C259.171 139.708 258.248 134.263 258.03 128.165C257.922 125.987 257.867 124.081 257.867 122.448C257.867 120.705 257.922 118.8 258.03 116.73C258.248 110.85 259.171 105.568 260.801 100.885C262.43 96.2028 264.712 92.1735 267.645 88.7976C270.578 85.4217 274.163 82.8625 278.4 81.1201C282.637 79.2688 287.363 78.3432 292.578 78.3432C298.01 78.3432 302.681 79.2688 306.592 81.1201C310.503 82.8625 313.817 85.1494 316.533 87.9808V53.0239C316.533 51.826 316.913 50.8459 317.673 50.0836C318.434 49.3213 319.411 48.9402 320.607 48.9402H340.487C341.574 48.9402 342.497 49.3213 343.258 50.0836C344.127 50.8459 344.561 51.826 344.561 53.0239V160.835C344.561 162.033 344.127 163.013 343.258 163.775C342.497 164.538 341.574 164.919 340.487 164.919H322.073C320.878 164.919 319.9 164.538 319.14 163.775C318.379 163.013 317.999 162.033 317.999 160.835V155.608C315.392 158.766 312.024 161.379 307.896 163.449C303.767 165.518 298.661 166.552 292.578 166.552ZM301.377 144.663C305.071 144.663 307.95 143.901 310.014 142.376C312.187 140.743 313.762 138.674 314.74 136.169C315.826 133.664 316.424 130.942 316.533 128.002C316.641 125.824 316.696 123.754 316.696 121.794C316.696 119.834 316.641 117.819 316.533 115.75C316.424 113.028 315.826 110.523 314.74 108.236C313.654 105.84 312.024 103.935 309.851 102.519C307.678 100.994 304.854 100.232 301.377 100.232C297.792 100.232 294.913 100.994 292.741 102.519C290.676 104.044 289.21 106.113 288.341 108.726C287.472 111.34 286.928 114.226 286.711 117.384C286.385 120.76 286.385 124.136 286.711 127.512C286.928 130.67 287.472 133.555 288.341 136.169C289.21 138.783 290.676 140.852 292.741 142.376C294.913 143.901 297.792 144.663 301.377 144.663ZM362.954 164.919C361.759 164.919 360.781 164.538 360.02 163.775C359.26 163.013 358.88 162.033 358.88 160.835V84.0604C358.88 82.8625 359.26 81.8824 360.02 81.1201C360.781 80.3578 361.759 79.9767 362.954 79.9767H382.183C383.269 79.9767 384.193 80.3578 384.953 81.1201C385.822 81.8824 386.257 82.8625 386.257 84.0604V160.835C386.257 162.033 385.822 163.013 384.953 163.775C384.193 164.538 383.269 164.919 382.183 164.919H362.954ZM362.791 67.7254C361.596 67.7254 360.618 67.3443 359.857 66.582C359.097 65.8197 358.717 64.8396 358.717 63.6417V49.1035C358.717 47.9056 359.097 46.9255 359.857 46.1632C360.618 45.292 361.596 44.8564 362.791 44.8564H382.183C383.378 44.8564 384.355 45.292 385.116 46.1632C385.985 46.9255 386.42 47.9056 386.42 49.1035V63.6417C386.42 64.8396 385.985 65.8197 385.116 66.582C384.355 67.3443 383.378 67.7254 382.183 67.7254H362.791ZM425.88 166.552C420.014 166.552 414.745 165.463 410.073 163.285C405.51 160.998 401.871 157.949 399.155 154.138C396.439 150.326 395.081 146.025 395.081 141.233C395.081 133.501 398.232 127.403 404.533 122.938C410.834 118.364 419.199 115.26 429.628 113.627L449.998 110.523V108.236C449.998 104.316 449.183 101.321 447.554 99.252C445.924 97.1829 442.937 96.1483 438.591 96.1483C435.549 96.1483 433.051 96.7473 431.095 97.9452C429.248 99.1431 427.782 100.777 426.695 102.846C425.717 104.261 424.359 104.969 422.621 104.969H404.37C403.175 104.969 402.251 104.643 401.599 103.989C400.948 103.227 400.676 102.356 400.785 101.376C400.785 99.4153 401.491 97.1829 402.903 94.6782C404.424 92.0646 406.706 89.5054 409.747 87.0007C412.789 84.496 416.7 82.4269 421.48 80.7934C426.261 79.1599 432.018 78.3432 438.754 78.3432C445.816 78.3432 451.845 79.1599 456.843 80.7934C461.84 82.4269 465.86 84.7138 468.901 87.6541C472.052 90.5944 474.388 94.0792 475.909 98.1085C477.43 102.029 478.19 106.385 478.19 111.177V160.835C478.19 162.033 477.756 163.013 476.886 163.775C476.126 164.538 475.203 164.919 474.116 164.919H455.213C454.018 164.919 453.04 164.538 452.28 163.775C451.519 163.013 451.139 162.033 451.139 160.835V155.118C449.727 157.187 447.825 159.093 445.435 160.835C443.045 162.577 440.221 163.939 436.962 164.919C433.811 166.008 430.117 166.552 425.88 166.552ZM433.539 147.93C436.69 147.93 439.515 147.277 442.013 145.97C444.621 144.554 446.63 142.431 448.043 139.599C449.564 136.659 450.324 133.011 450.324 128.655V126.368L436.473 128.818C431.367 129.69 427.619 131.051 425.228 132.902C422.947 134.644 421.806 136.714 421.806 139.109C421.806 140.961 422.35 142.54 423.436 143.847C424.522 145.153 425.935 146.188 427.673 146.95C429.411 147.604 431.367 147.93 433.539 147.93Z" fill="#5DA9E9"/>
<path d="M428.33 22.6059C428.335 23.2087 428.153 23.7979 427.809 24.2917C427.464 24.7855 426.975 25.1595 426.407 25.3612L414.783 29.5991L410.556 41.2507C410.348 41.813 409.973 42.2981 409.481 42.6406C408.99 42.9832 408.405 43.1668 407.807 43.1668C407.207 43.1668 406.625 42.9832 406.133 42.6406C405.642 42.2981 405.267 41.813 405.059 41.2507L400.83 29.5862L389.208 25.3612C388.645 25.1525 388.161 24.7766 387.82 24.284C387.48 23.7915 387.294 23.2059 387.294 22.6059C387.294 22.0059 387.48 21.4204 387.82 20.9278C388.161 20.4352 388.645 20.0593 389.208 19.8505L400.845 15.6128L405.059 3.96123C405.267 3.39876 405.642 2.91366 406.133 2.5711C406.625 2.22854 407.207 2.04492 407.807 2.04492C408.405 2.04492 408.99 2.22854 409.481 2.5711C409.973 2.91366 410.348 3.39876 410.556 3.96123L414.783 15.6256L426.407 19.8505C426.975 20.0525 427.464 20.4263 427.809 20.9201C428.153 21.4139 428.335 22.0032 428.33 22.6059Z" fill="url(#paint0_radial_3380_9547)"/>
<path d="M376.854 26.626C376.856 26.8797 376.777 27.128 376.634 27.3359C376.488 27.5438 376.281 27.7012 376.044 27.7861L371.148 29.5705L369.368 34.4765C369.281 34.7133 369.123 34.9175 368.916 35.0618C368.708 35.2059 368.464 35.2833 368.212 35.2833C367.96 35.2833 367.713 35.2059 367.506 35.0618C367.298 34.9175 367.143 34.7133 367.054 34.4765L365.274 29.5651L360.38 27.7861C360.143 27.6982 359.941 27.54 359.795 27.3326C359.652 27.1252 359.575 26.8787 359.575 26.626C359.575 26.3733 359.652 26.1268 359.795 25.9194C359.941 25.712 360.143 25.5539 360.38 25.4657L365.279 23.6815L367.054 18.7756C367.143 18.5388 367.298 18.3345 367.506 18.1903C367.713 18.0461 367.96 17.9688 368.212 17.9688C368.464 17.9688 368.708 18.0461 368.916 18.1903C369.123 18.3345 369.281 18.5388 369.368 18.7756L371.148 23.6869L376.044 25.4657C376.281 25.5509 376.488 25.7083 376.634 25.9162C376.777 26.1241 376.856 26.3723 376.854 26.626Z" fill="url(#paint1_radial_3380_9547)"/>
<path d="M417.064 63.4436C417.067 63.8243 416.951 64.1965 416.733 64.5083C416.516 64.8202 416.208 65.0563 415.85 65.1838L408.507 67.8602L405.837 75.2192C405.707 75.5743 405.47 75.8807 405.158 76.097C404.847 76.3136 404.479 76.4294 404.102 76.4294C403.724 76.4294 403.354 76.3136 403.045 76.097C402.734 75.8807 402.497 75.5743 402.366 75.2192L399.694 67.8521L392.354 65.1838C391.998 65.0519 391.695 64.8145 391.477 64.5034C391.262 64.1923 391.146 63.8225 391.146 63.4436C391.146 63.0647 391.262 62.6949 391.477 62.3838C391.695 62.0727 391.998 61.8351 392.354 61.7034L399.704 59.027L402.366 51.668C402.497 51.3126 402.734 51.0065 403.045 50.7899C403.354 50.5736 403.724 50.4578 404.102 50.4578C404.479 50.4578 404.847 50.5736 405.158 50.7899C405.47 51.0065 405.707 51.3126 405.837 51.668L408.507 59.0349L415.85 61.7034C416.208 61.8309 416.516 62.067 416.733 62.3789C416.951 62.6907 417.067 63.0629 417.064 63.4436Z" fill="url(#paint2_radial_3380_9547)"/>
<defs>
<radialGradient id="paint0_radial_3380_9547" cx="0" cy="0" r="1" gradientUnits="userSpaceOnUse" gradientTransform="translate(407.396 21.8446) rotate(90) scale(22.2749 22.2281)">
<stop offset="0.572917" stop-color="#FFD500"/>
<stop offset="1" stop-color="#FDC500"/>
</radialGradient>
<radialGradient id="paint1_radial_3380_9547" cx="0" cy="0" r="1" gradientUnits="userSpaceOnUse" gradientTransform="translate(368.039 26.3055) rotate(90) scale(9.37894 9.35934)">
<stop offset="0.572917" stop-color="#FFD500"/>
<stop offset="1" stop-color="#FDC500"/>
</radialGradient>
<radialGradient id="paint2_radial_3380_9547" cx="0" cy="0" r="1" gradientUnits="userSpaceOnUse" gradientTransform="translate(403.842 62.9628) rotate(90) scale(14.0683 14.039)">
<stop offset="0.572917" stop-color="#FFD500"/>
<stop offset="1" stop-color="#FDC500"/>
</radialGradient>
</defs>
</svg>
